<svg width="127" height="34" viewBox="0 0 127 34" fill="none" xmlns="http://www.w3.org/2000/svg">
<path d="M112.826 31.32V16.116H106.484V11.37H112.826V7.296C112.826 5.28 113.498 3.67 114.842 2.466C116.186 1.262 117.964 0.660004 120.176 0.660004H126.938V5.28H120.302C119.63 5.28 119.084 5.476 118.664 5.868C118.272 6.232 118.076 6.736 118.076 7.38V11.37H126.938V16.116H118.076V31.32H112.826Z" fill="black"/>
<path d="M82.4761 31.32V8.22H87.6001V12.63H89.0281L87.4741 13.848C87.5021 12 88.0901 10.53 89.2381 9.438C90.3861 8.346 91.9121 7.8 93.8161 7.8C96.0841 7.8 97.8901 8.556 99.2341 10.068C100.606 11.58 101.292 13.61 101.292 16.158V31.32H96.0421V16.788C96.0421 15.36 95.6781 14.268 94.9501 13.512C94.2221 12.728 93.2141 12.336 91.9261 12.336C90.6101 12.336 89.5741 12.728 88.8181 13.512C88.0901 14.296 87.7261 15.416 87.7261 16.872V31.32H82.4761Z" fill="black"/>
<path d="M66.6585 31.698C64.6985 31.698 62.9905 31.32 61.5345 30.564C60.0785 29.808 58.9585 28.744 58.1745 27.372C57.3905 25.972 56.9985 24.334 56.9985 22.458V17.082C56.9985 15.178 57.3905 13.54 58.1745 12.168C58.9585 10.796 60.0785 9.732 61.5345 8.976C62.9905 8.22 64.6985 7.842 66.6585 7.842C68.6465 7.842 70.3545 8.22 71.7825 8.976C73.2385 9.732 74.3585 10.796 75.1425 12.168C75.9265 13.54 76.3185 15.178 76.3185 17.082V22.458C76.3185 24.334 75.9265 25.972 75.1425 27.372C74.3585 28.744 73.2385 29.808 71.7825 30.564C70.3545 31.32 68.6465 31.698 66.6585 31.698ZM66.6585 27.12C68.0585 27.12 69.1365 26.742 69.8925 25.986C70.6765 25.202 71.0685 24.082 71.0685 22.626V16.914C71.0685 15.43 70.6765 14.31 69.8925 13.554C69.1365 12.798 68.0585 12.42 66.6585 12.42C65.2865 12.42 64.2085 12.798 63.4245 13.554C62.6405 14.31 62.2485 15.43 62.2485 16.914V22.626C62.2485 24.082 62.6405 25.202 63.4245 25.986C64.2085 26.742 65.2865 27.12 66.6585 27.12Z" fill="black"/>
<path d="M41.8529 31.74C39.8649 31.74 38.1289 31.376 36.6449 30.648C35.1889 29.892 34.0549 28.842 33.2429 27.498C32.4309 26.126 32.0249 24.516 32.0249 22.668V16.872C32.0249 14.996 32.4309 13.386 33.2429 12.042C34.0549 10.698 35.1889 9.662 36.6449 8.934C38.1289 8.178 39.8649 7.8 41.8529 7.8C44.7369 7.8 47.0469 8.556 48.7829 10.068C50.5189 11.552 51.4429 13.582 51.5549 16.158H46.3889C46.3049 14.954 45.8569 14.03 45.0449 13.386C44.2329 12.714 43.1689 12.378 41.8529 12.378C40.4249 12.378 39.3049 12.77 38.4929 13.554C37.6809 14.31 37.2749 15.402 37.2749 16.83V22.668C37.2749 24.096 37.6809 25.202 38.4929 25.986C39.3049 26.77 40.4249 27.162 41.8529 27.162C43.1689 27.162 44.2329 26.84 45.0449 26.196C45.8569 25.524 46.3049 24.586 46.3889 23.382H51.5549C51.4429 25.958 50.5189 28.002 48.7829 29.514C47.0469 30.998 44.7369 31.74 41.8529 31.74Z" fill="black"/>
<path d="M2.0625 4.50751H9.02344C10.5703 4.50751 11.9883 5.40985 12.6973 6.82782L23.9121 29.2575H26.8125C27.9082 29.2575 28.875 30.2243 28.875 31.32C28.875 32.4802 27.9082 33.3825 26.8125 33.3825H23.9121C22.3652 33.3825 20.9473 32.5446 20.2383 31.1266L12.4395 15.529L4.96289 32.2224C4.44727 33.2536 3.22266 33.7048 2.19141 33.2536C1.16016 32.738 0.708984 31.5134 1.16016 30.4821L10.0547 10.7595L9.02344 8.63251H2.0625C0.902344 8.63251 0 7.73016 0 6.57001C0 5.4743 0.902344 4.50751 2.0625 4.50751Z" fill="#00B2FF"/>
</svg>
