<svg width="127" height="33" viewBox="0 0 127 33" fill="none" xmlns="http://www.w3.org/2000/svg">
<path d="M112.826 30.66V15.456H106.484V10.71H112.826V6.636C112.826 4.62 113.498 3.01 114.842 1.806C116.186 0.601999 117.964 0 120.176 0H126.938V4.62H120.302C119.63 4.62 119.084 4.816 118.664 5.208C118.272 5.572 118.076 6.076 118.076 6.72V10.71H126.938V15.456H118.076V30.66H112.826Z" fill="white"/>
<path d="M82.4761 30.66V7.56H87.6001V11.97H89.0281L87.4741 13.188C87.5021 11.34 88.0901 9.87 89.2381 8.778C90.3861 7.686 91.9121 7.14 93.8161 7.14C96.0841 7.14 97.8901 7.896 99.2341 9.408C100.606 10.92 101.292 12.95 101.292 15.498V30.66H96.0421V16.128C96.0421 14.7 95.6781 13.608 94.9501 12.852C94.2221 12.068 93.2141 11.676 91.9261 11.676C90.6101 11.676 89.5741 12.068 88.8181 12.852C88.0901 13.636 87.7261 14.756 87.7261 16.212V30.66H82.4761Z" fill="white"/>
<path d="M66.6585 31.038C64.6985 31.038 62.9905 30.66 61.5345 29.904C60.0785 29.148 58.9585 28.084 58.1745 26.712C57.3905 25.312 56.9985 23.674 56.9985 21.798V16.422C56.9985 14.518 57.3905 12.88 58.1745 11.508C58.9585 10.136 60.0785 9.07201 61.5345 8.31601C62.9905 7.56001 64.6985 7.18201 66.6585 7.18201C68.6465 7.18201 70.3545 7.56001 71.7825 8.31601C73.2385 9.07201 74.3585 10.136 75.1425 11.508C75.9265 12.88 76.3185 14.518 76.3185 16.422V21.798C76.3185 23.674 75.9265 25.312 75.1425 26.712C74.3585 28.084 73.2385 29.148 71.7825 29.904C70.3545 30.66 68.6465 31.038 66.6585 31.038ZM66.6585 26.46C68.0585 26.46 69.1365 26.082 69.8925 25.326C70.6765 24.542 71.0685 23.422 71.0685 21.966V16.254C71.0685 14.77 70.6765 13.65 69.8925 12.894C69.1365 12.138 68.0585 11.76 66.6585 11.76C65.2865 11.76 64.2085 12.138 63.4245 12.894C62.6405 13.65 62.2485 14.77 62.2485 16.254V21.966C62.2485 23.422 62.6405 24.542 63.4245 25.326C64.2085 26.082 65.2865 26.46 66.6585 26.46Z" fill="white"/>
<path d="M41.8529 31.08C39.8649 31.08 38.1289 30.716 36.6449 29.988C35.1889 29.232 34.0549 28.182 33.2429 26.838C32.4309 25.466 32.0249 23.856 32.0249 22.008V16.212C32.0249 14.336 32.4309 12.726 33.2429 11.382C34.0549 10.038 35.1889 9.002 36.6449 8.274C38.1289 7.518 39.8649 7.14 41.8529 7.14C44.7369 7.14 47.0469 7.896 48.7829 9.408C50.5189 10.892 51.4429 12.922 51.5549 15.498H46.3889C46.3049 14.294 45.8569 13.37 45.0449 12.726C44.2329 12.054 43.1689 11.718 41.8529 11.718C40.4249 11.718 39.3049 12.11 38.4929 12.894C37.6809 13.65 37.2749 14.742 37.2749 16.17V22.008C37.2749 23.436 37.6809 24.542 38.4929 25.326C39.3049 26.11 40.4249 26.502 41.8529 26.502C43.1689 26.502 44.2329 26.18 45.0449 25.536C45.8569 24.864 46.3049 23.926 46.3889 22.722H51.5549C51.4429 25.298 50.5189 27.342 48.7829 28.854C47.0469 30.338 44.7369 31.08 41.8529 31.08Z" fill="white"/>
<path d="M2.0625 3.8475H9.02344C10.5703 3.8475 11.9883 4.74985 12.6973 6.16782L23.9121 28.5975H26.8125C27.9082 28.5975 28.875 29.5643 28.875 30.66C28.875 31.8202 27.9082 32.7225 26.8125 32.7225H23.9121C22.3652 32.7225 20.9473 31.8846 20.2383 30.4666L12.4395 14.869L4.96289 31.5623C4.44727 32.5936 3.22266 33.0448 2.19141 32.5936C1.16016 32.078 0.708984 30.8534 1.16016 29.8221L10.0547 10.0995L9.02344 7.9725H2.0625C0.902344 7.9725 0 7.07016 0 5.91C0 4.8143 0.902344 3.8475 2.0625 3.8475Z" fill="#00B2FF"/>
</svg>
